# AST/ASF file generated using VICON BodyLanguage
# -----------------------------------------------
:version 1.10
:name VICON
:units
  mass 1.0
  length 0.45
  angle deg
:documentation
   .ast/.asf automatically generated from VICON data using
   VICON BodyBuilder and BodyLanguage model FoxedUp or BRILLIANT.MOD
:root
   order TX TY TZ RX RY RZ
   axis XYZ
   position 0 0 0  
   orientation 0 0 0 
:bonedata
  begin
     id 1 
     name lhipjoint
     direction 0.566809 -0.746272 0.349008 
     length 2.40479 
     axis 0 0 0  XYZ
  end
  begin
     id 2 
     name lfemur
     direction 0.34202 -0.939693 0  
     length 7.1578  
     axis 0 0 20  XYZ
    dof rx ry rz
    limits (-160.0 20.0)
           (-70.0 70.0)
           (-60.0 70.0)
  end
  begin
     id 3 
     name ltibia
     direction 0.34202 -0.939693 0   
     length 7.49137   
     axis 0 0 20   XYZ
    dof rx
    limits (-10.0 170.0)
  end
  begin
     id 4 
     name lfoot
     direction 0.0665746 -0.182912 0.980873   
     length 2.36784   
     axis -90 7.62852e-016 20   XYZ
    dof rx rz
    limits (-45.0 90.0)
           (-70.0 20.0)
  end
  begin
     id 5 
     name ltoes
     direction 1.53601e-011 -4.22058e-011 1   
     length 1.18966   
     axis -90 7.62852e-016 20   XYZ
    dof rx
    limits (-90.0 20.0)
  end
  begin
     id 6 
     name rhipjoint
     direction -0.550236 -0.756381 0.353735   
     length 2.37265  
     axis 0 0 0  XYZ 
  end
  begin
     id 7 
     name rfemur
     direction -0.34202 -0.939693 0   
     length 7.43386   
     axis 0 0 -20   XYZ
    dof rx ry rz
    limits (-160.0 20.0)
           (-70.0 70.0)
           (-70.0 60.0)
  end
  begin
     id 8 
     name rtibia
     direction -0.34202 -0.939693 0   
     length 7.50908   
     axis 0 0 -20   XYZ
    dof rx
    limits (-10.0 170.0)
 end
 begin
     id 9 
     name rfoot
     direction -0.0683029 -0.187661 0.979856   
     length 2.41173  
     axis -90 -7.62852e-016 -20   XYZ
    dof rx rz
    limits (-45.0 90.0)
           (-20.0 70.0)
  end
  begin
     id 10 
     name rtoes
     direction -1.53528e-011 -4.21968e-011 1   
     length 1.21082   
     axis -90 -7.62852e-016 -20   XYZ
    dof rx
    limits (-90.0 20.0)
  end
  begin
     id 11 
     name lowerback
     direction 0.013823 0.995423 -0.0945635   
     length 2.04495   
     axis 0 0 0   XYZ
    dof rx ry rz
    limits (-20.0 45.0)
           (-30.0 30.0)
           (-30.0 30.0)
  end
  begin
     id 12 
     name upperback
     direction 0.0276657 0.9994 -0.020853   
     length 2.05008   
     axis 0 0 0   XYZ
    dof rx ry rz
    limits (-20.0 45.0)
           (-30.0 30.0)
           (-30.0 30.0)
  end
  begin
     id 13 
     name thorax
     direction 0.019782 0.999531 0.0233827   
     length 2.06488   
     axis 0 0 0   XYZ
    dof rx ry rz
    limits (-20.0 45.0)
           (-30.0 30.0)
           (-30.0 30.0)
  end
  begin
     id 14 
     name lowerneck
     direction -0.0308541 0.994709 0.0979874   
     length 1.75553   
     axis 0 0 0   XYZ
    dof rx ry rz
    limits (-20.0 45.0)
           (-30.0 30.0)
           (-30.0 30.0)
  end
  begin
     id 15 
     name upperneck
     direction 0.0588398 0.995804 -0.0700903   
     length 1.76878   
     axis 0 0 0   XYZ
    dof rx ry rz
    limits (-20.0 45.0)
           (-30.0 30.0)
           (-30.0 30.0)
  end
  begin
     id 16
     name head
     direction 0.0209966 0.999159 -0.0352225  
     length 1.77193  
     axis 0 0 0   XYZ
    dof rx ry rz
    limits (-20.0 45.0)
           (-30.0 30.0)
           (-30.0 30.0)
  end
  begin
     id 17 
     name lclavicle
     direction 0.938182 0.335073 -0.0868338  
     length 3.58396  
     axis 0 0 0   XYZ
    dof ry rz
    limits (-20.0 10.0)
           (0.0 20.0)
  end
  begin
     id 18 
     name lhumerus
     direction 1 -4.48971e-011 -1.26313e-017   
     length 4.983   
     axis 180 -30 -90   XYZ
    dof rx ry rz
    limits (-60.0 90.0)
           (-90.0 90.0)
           (-90.0 90.0)
  end
  begin
     id 19
     name lradius
     direction 1 -4.48948e-011 -5.89033e-027   
     length 3.48356   
     axis 180 -30 -90   XYZ
    dof rx
    limits (-10.0 170.0)
  end
  begin
     id 20
     name lwrist
     direction 1 -4.48977e-011 -1.48983e-026   
     length 1.74178   
     axis 9.0955e-015 90 90   XYZ
    dof ry
    limits (-180.0 0.0)
 end
  begin
     id 21 
     name lhand
     direction 1 -4.49046e-011 -2.98066e-026   
     length 0.715259   
     axis 1.90115e-014 90 90   XYZ
    dof rx rz
    limits (-90.0 90.0)
           (-45.0 45.0)
  end
  begin
     id 22 
     name lfingers
     direction 1 -4.48907e-011 -5.95731e-026   
     length 0.576661   
     axis 3.80223e-014 90 90   XYZ
    dof rx
    limits (0.0 90.0)
  end
  begin
     id 23
     name lthumb
     direction 0.707107 -6.34963e-011 0.707107   
     length 0.827973   
     axis -90 45 -3.84942e-014   XYZ
    dof rx rz
    limits (-45.0 45.0)
           (-45.0 45.0)
  end
  begin
     id 24 
     name rclavicle
     direction -0.909637 0.398485 -0.11735   
     length 3.44819  
     axis 0 0 0   XYZ 
    dof ry rz
    limits (-10.0 20.0)
           (-20.0 0.0)
  end
  begin
     id 25 
     name rhumerus
     direction -1 -4.48978e-011 -1.09333e-027  
     length 5.2419   
     axis 180 30 90   XYZ
    dof rx ry rz
    limits (-90.0 60.0)
           (-90.0 90.0)
           (-90.0 90.0)
  end
  begin
     id 26 
     name rradius
     direction -1 -4.48953e-011 -7.61841e-027   
     length 3.44417   
     axis 180 30 90   XYZ
    dof rx
    limits (-10.0 170.0)
  end
  begin
     id 27 
     name rwrist
     direction -1 -4.48977e-011 -1.48983e-026   
     length 1.72209   
     axis 9.0955e-015 -90 -90   XYZ
    dof ry
    limits (-180.0 0.0)
  end
  begin
     id 28
     name rhand
     direction -1 -4.49027e-011 -2.98038e-026   
     length 0.622529   
     axis 1.90115e-014 -90 -90   XYZ
    dof rx rz
    limits (-90.0 90.0)
           (-45.0 45.0)
  end
  begin
     id 29
     name rfingers
     direction -1 -4.48838e-011 -5.95531e-026   
     length 0.501899   
     axis 3.80223e-014 -90 -90   XYZ
    dof rx
    limits (0.0 90.0)
  end
  begin
     id 30
     name rthumb
     direction -0.707107 -6.34937e-011 0.707107   
     length 0.720629   
     axis -90 -45 3.84942e-014   XYZ
    dof rx rz
    limits (-45.0 45.0)
           (-45.0 45.0)
  end
:hierarchy
  begin
    root lhipjoint rhipjoint lowerback
    lhipjoint lfemur
    lfemur ltibia
    ltibia lfoot
    lfoot ltoes
    rhipjoint rfemur
    rfemur rtibia
    rtibia rfoot
    rfoot rtoes
    lowerback upperback
    upperback thorax
    thorax lowerneck lclavicle rclavicle
    lowerneck upperneck
    upperneck head
    lclavicle lhumerus
    lhumerus lradius
    lradius lwrist
    lwrist lhand lthumb
    lhand lfingers
    rclavicle rhumerus
    rhumerus rradius
    rradius rwrist
    rwrist rhand rthumb
    rhand rfingers
  end

#!OML:ASF F:\VICON\USERDATA\Patient Classification 1\PLAYGROUND\JustinFriday\JustinFriday.ASF
:FULLY-SPECIFIED
:DEGREES
454
root 34.9249 26.334 -11.0638 20.5235 -71.8918 -11.3169
lowerback 28.1074 3.11726 7.65677
upperback 2.90875 6.67364 4.68969
thorax -12.0074 2.65776 -1.46717
lowerneck -13.3108 2.16682 -3.50739
upperneck -12.8265 2.77185 -1.50213
head -1.8909 1.35936 0.171336
rclavicle -5.725e-014 -9.70069e-014
rhumerus 16.4005 11.9197 -72.6369
rradius 60.4634
rwrist 19.4048
rhand -48.1092 -14.0067
rfingers 7.12502
rthumb -20.7734 -42.9147
lclavicle -5.725e-014 -9.70069e-014
lhumerus 7.47693 25.4941 59.9703
lradius 111.38
lwrist -25.0336
lhand -36.742 -14.8395
lfingers 7.12502
lthumb -9.82578 14.9112
rfemur -33.1329 -5.84382 32.9109
rtibia 53.1285
rfoot -26.1895 -14.317
rtoes 17.3175
lfemur -38.9066 9.38323 -9.70435
ltibia 75.2722
lfoot -15.0248 3.71782
ltoes 9.26359
455
root 34.9078 26.3699 -11.0875 20.6206 -71.3717 -11.4655
lowerback 28.1105 3.38115 8.14193
upperback 2.80865 7.15086 4.45087
thorax -11.9991 2.84556 -2.18012
lowerneck -13.1847 1.91427 -2.78373
upperneck -12.7476 2.34999 -1.69618
head -1.86503 1.12504 -0.0181758
rclavicle 2.38542e-015 1.59028e-015
rhumerus 15.409 10.3505 -72.7268
rradius 60.6381
rwrist 19.2566
rhand -47.7945 -14.808
rfingers 7.12502
rthumb -20.4709 -43.7489
lclavicle 2.38542e-015 1.59028e-015
lhumerus 9.08891 26.1472 58.7457
lradius 111.143
lwrist -24.4343
lhand -38.0882 -12.5573
lfingers 7.12502
lthumb -11.1244 17.1278
rfemur -32.6783 -6.2577 33.1918
rtibia 52.1415
rfoot -25.6888 -14.0388
rtoes 18.009
lfemur -40.6587 13.0761 -9.63121
ltibia 77.7476
lfoot -15.4409 1.0138
ltoes 7.94361
456
root 34.8856 26.4588 -11.1138 20.1101 -70.9009 -10.982
lowerback 28.1247 3.5383 8.22356
upperback 2.74912 7.38038 4.34578
thorax -12.032 2.94283 -2.42866
lowerneck -12.9052 1.75699 -2.53283
upperneck -12.9963 2.10222 -1.68451
head -1.98618 0.996482 -0.0646959
rclavicle 4.77083e-015 1.11319e-014
rhumerus 14.7316 9.31066 -72.7115
rradius 60.6089
rwrist 19.0578
rhand -47.4318 -14.332
rfingers 7.12502
rthumb -20.1223 -43.3099
lclavicle 4.77083e-015 1.11319e-014
lhumerus 10.3271 27.4697 57.5449
lradius 110.49
lwrist -24.0303
lhand -38.7248 -12.5186
lfingers 7.12502
lthumb -11.7382 17.1325
rfemur -32.0292 -6.67053 33.2411
rtibia 50.9541
rfoot -25.1823 -13.9661
rtoes 18.7583
lfemur -41.6472 11.3906 -9.67494
ltibia 79.7695
lfoot -16.4954 1.76076
ltoes 9.71943
457
root 34.8651 26.5279 -11.1337 19.1566 -70.4149 -10.1793
lowerback 28.3577 3.4997 8.09794
upperback 2.74443 7.32849 4.4195
thorax -12.1922 2.91721 -2.27438
lowerneck -13.2742 1.83149 -3.0813
upperneck -12.6461 2.31131 -1.40769
head -1.82577 1.1196 0.121716
rclavicle 1.90833e-014 3.02153e-014
rhumerus 14.2943 8.99267 -72.5691
rradius 60.608
rwrist 18.8526
rhand -47.0811 -13.4099
rfingers 7.12502
rthumb -19.7852 -42.4229
lclavicle 1.90833e-014 3.02153e-014
lhumerus 11.0328 29.4142 56.1786
lradius 109.31
lwrist -24.9255
lhand -40.2993 -12.0234
lfingers 7.12502
lthumb -13.2563 17.5351
rfemur -31.3329 -6.90301 33.1173
rtibia 49.9648
rfoot -24.8373 -14.0741
rtoes 19.6874
lfemur -42.6139 9.89572 -9.85643
ltibia 81.8984
lfoot -17.6294 1.94542
ltoes 11.0097
458
root 34.8446 26.5939 -11.1603 18.7706 -69.9762 -9.85808
lowerback 28.34 3.21883 7.72381
upperback 2.83614 6.89415 4.91395
thorax -12.226 2.74973 -1.34517
lowerneck -13.1292 2.01114 -4.59805
upperneck -12.6346 2.73697 -1.14733
head -1.88269 1.39589 0.462416
rclavicle -8.18993e-014 6.52014e-014
rhumerus 14.3409 10.1377 -72.0888
rradius 60.6425
rwrist 18.5934
rhand -46.7565 -12.9372
rfingers 7.12502
rthumb -19.4732 -41.9821
lclavicle -8.18993e-014 6.52014e-014
lhumerus 10.6324 32.5132 54.4408
lradius 108.202
lwrist -26.0587
lhand -41.9967 -11.1942
lfingers 7.12502
lthumb -14.892 18.2505
rfemur -30.6789 -6.95526 33.1415
rtibia 48.8683
rfoot -24.6246 -13.804
rtoes 21.9621
lfemur -44.0199 10.8001 -10.0315
ltibia 83.988
lfoot -18.3824 0.935208
ltoes 8.35213
459
root 34.8254 26.6466 -11.1853 18.9951 -69.797 -10.2241
lowerback 28.1978 3.58824 8.10585
upperback 3.04306 7.40451 4.61752
thorax -11.7791 2.97987 -2.05931
lowerneck -13.2645 1.75832 -3.72871
upperneck -12.7126 2.28313 -1.49887
head -1.85857 1.1364 0.198491
rclavicle 5.32743e-014 0
rhumerus 13.8135 8.37818 -72.2188
rradius 60.7383
rwrist 18.7186
rhand -46.7709 -13.1775
rfingers 7.12502
rthumb -19.487 -42.221
lclavicle 5.32743e-014 0
lhumerus 13.1505 33.4097 53.8426
lradius 106.815
lwrist -26.7646
lhand -43.2313 -10.58
lfingers 7.12502
lthumb -16.0811 18.7727
rfemur -30.0354 -6.9979 33.3273
rtibia 47.9311
rfoot -24.35 -13.4031
rtoes 23.6411
lfemur -45.4112 12.7073 -10.0723
ltibia 86.1804
lfoot -18.4037 0.32938
ltoes 8.79718
460
root 34.8027 26.7091 -11.202 18.9592 -69.5837 -10.449
lowerback 28.2019 3.70094 8.31438
upperback 3.25644 7.57461 4.59482
thorax -11.4857 3.06235 -2.2513
lowerneck -13.1982 1.626 -4.05025
upperneck -12.8241 2.1484 -1.38154
head -1.91105 1.08518 0.284825
rclavicle -6.83819e-014 6.36111e-015
rhumerus 13.5253 7.94889 -71.8747
rradius 60.7242
rwrist 18.3906
rhand -47.0968 -13.8096
rfingers 7.12502
rthumb -19.8003 -42.821
lclavicle -6.83819e-014 6.36111e-015
lhumerus 14.5842 34.9168 52.9393
lradius 105.543
lwrist -26.8583
lhand -43.5268 -10.0173
lfingers 7.12502
lthumb -16.3656 19.3123
rfemur -29.2229 -7.44629 33.4717
rtibia 46.871
rfoot -23.4168 -13.4624
rtoes 22.0257
lfemur -46.4701 13.6965 -10.1423
ltibia 88.2509
lfoot -18.8843 0.105458
ltoes 9.30582
461
root 34.7849 26.7305 -11.2078 18.409 -69.1149 -10.0774
lowerback 28.2962 3.73922 8.55857
upperback 3.29354 7.6908 4.4934
thorax -11.4326 3.10463 -2.54571
lowerneck -12.73 1.42324 -4.14628
upperneck -13.1467 1.86741 -1.3122
head -2.09074 0.957803 0.312978
rclavicle 1.43125e-014 1.27222e-014
rhumerus 12.9816 7.31823 -71.6097
rradius 60.7095
rwrist 18.2017
rhand -47.2132 -14.0447
rfingers 7.12502
rthumb -19.9122 -43.0445
lclavicle 1.43125e-014 1.27222e-014
lhumerus 15.8302 36.1652 51.8971
lradius 104.334
lwrist -26.5953
lhand -42.9843 -9.51316
lfingers 7.12502
lthumb -15.8432 19.8586
rfemur -28.6047 -8.25912 33.5375
rtibia 45.7723
rfoot -21.9186 -14.2075
rtoes 17.9986
lfemur -47.9653 16.035 -10.4556
ltibia 90.4915
lfoot -19.5593 -1.51123
ltoes 8.79963
462
root 34.7711 26.7829 -11.2396 18.519 -68.4822 -10.0082
lowerback 28.0392 3.84384 8.59755
upperback 3.24969 7.82052 4.49432
thorax -11.3338 3.17218 -2.59312
lowerneck -12.3845 1.43406 -3.91882
upperneck -13.5153 1.83598 -1.30643
head -2.26574 0.94019 0.273043
rclavicle 1.21656e-013 2.38542e-014
rhumerus 12.4467 6.07984 -71.8942
rradius 60.9436
rwrist 18.7258
rhand -46.8587 -13.5995
rfingers 7.12502
rthumb -19.5714 -42.6344
lclavicle 1.21656e-013 2.38542e-014
lhumerus 17.2076 37.3636 50.9809
lradius 102.844
lwrist -27.0351
lhand -42.99 -9.00581
lfingers 7.12502
lthumb -15.8487 20.3655
rfemur -28.338 -8.76578 33.9662
rtibia 44.6441
rfoot -20.9158 -15.064
rtoes 15.9747
lfemur -49.4889 14.6492 -10.3058
ltibia 92.4268
lfoot -20.4605 -1.88639
ltoes 10.0283
